<svg xmlns="http://www.w3.org/2000/svg" width="600" height="400" viewBox="0 0 600 400"><rect width="100%" height="100%" fill="#DDDDDD"/><path fill="#999999" d="M148.98 176.06h6.52v39.77h-3.8q-.88 0-1.47-.29t-1.14-.97l-20.76-26.51q.16 1.81.16 3.35v24.42h-6.51v-39.77h3.87q.47 0 .81.05.35.04.61.16t.51.36q.25.23.55.62l20.84 26.62q-.08-.97-.13-1.9-.06-.93-.06-1.73v-24.18Zm19.66 22.42h12.82q0-1.32-.37-2.49-.37-1.17-1.12-2.05-.74-.88-1.88-1.39-1.14-.51-2.65-.51-2.95 0-4.64 1.68-1.69 1.68-2.16 4.76Zm17.33 4.09h-17.46q.16 2.18.77 3.76.6 1.58 1.59 2.61.99 1.03 2.35 1.54t3.01.51q1.65 0 2.85-.38 1.2-.39 2.09-.86.89-.46 1.57-.85.67-.39 1.3-.39.86 0 1.27.64l1.95 2.47q-1.13 1.32-2.53 2.22-1.4.89-2.93 1.43-1.52.53-3.11.75-1.58.22-3.06.22-2.94 0-5.47-.97-2.53-.98-4.4-2.89-1.87-1.91-2.95-4.73-1.07-2.82-1.07-6.53 0-2.89.94-5.43.93-2.55 2.68-4.43 1.74-1.89 4.26-2.98 2.52-1.11 5.68-1.11 2.67 0 4.92.86 2.26.85 3.88 2.49 1.62 1.63 2.54 4.01.92 2.38.92 5.43 0 1.54-.33 2.08-.33.53-1.26.53Zm41.8-14.95h5.17l-8.97 28.21h-5.44q-.94 0-1.29-1.21l-5.06-16.31q-.25-.82-.46-1.63-.2-.81-.34-1.64-.17.83-.37 1.66-.21.84-.46 1.67l-5.14 16.25q-.33 1.21-1.46 1.21h-5.22l-8.94-28.21h5.42q.74 0 1.26.35.53.36.69.91l4.04 15.07q.31 1.24.54 2.42.23 1.18.4 2.37.3-1.19.64-2.37.35-1.18.73-2.42l4.68-15.12q.16-.55.64-.91.49-.36 1.17-.36h3q.72 0 1.22.36.51.36.68.91l4.54 15.12q.35 1.24.67 2.43.32 1.2.62 2.38.36-2.33 1.02-4.81l4.15-15.07q.19-.55.69-.91.49-.35 1.18-.35Zm27.77 3.05-1.54 2.45q-.27.44-.57.61-.31.18-.77.18-.5 0-1.06-.27-.57-.28-1.31-.62-.74-.35-1.69-.62-.95-.28-2.24-.28-2.01 0-3.15.86-1.14.85-1.14 2.22 0 .91.59 1.53t1.57 1.09q.97.46 2.21.84 1.24.37 2.52.81 1.28.44 2.51 1 1.24.57 2.22 1.43.97.87 1.56 2.08.6 1.21.6 2.91 0 2.04-.73 3.76-.73 1.72-2.16 2.97-1.43 1.25-3.54 1.95-2.1.7-4.85.7-1.46 0-2.85-.26-1.38-.26-2.66-.73-1.28-.47-2.37-1.1-1.08-.63-1.91-1.37l1.57-2.59q.3-.47.71-.72.42-.24 1.05-.24.63 0 1.19.36.57.35 1.31.76.74.42 1.75.78 1 .35 2.54.35 1.21 0 2.08-.29.86-.29 1.43-.75.56-.47.82-1.09.26-.62.26-1.28 0-.99-.59-1.62-.59-.63-1.57-1.1-.97-.47-2.22-.84-1.25-.37-2.56-.81-1.31-.44-2.56-1.03-1.25-.59-2.23-1.5-.97-.91-1.56-2.23-.59-1.32-.59-3.19 0-1.73.68-3.3.69-1.56 2.02-2.73 1.34-1.17 3.33-1.87 2-.71 4.61-.71 2.91 0 5.31.97 2.39.96 3.98 2.53Zm44.94-8.72h-17.66v11.03h13.92v5.69h-13.92v11.25h17.66v5.91H275.4v-39.77h25.08v5.89Zm21.01 19.03 9.65 14.85h-6.54q-.75 0-1.2-.39-.45-.38-.76-.87l-5.96-9.82q-.14.46-.32.88-.18.41-.4.77l-5.28 8.17q-.3.46-.74.86-.44.4-1.1.4h-6.08l9.68-14.55-9.29-13.66h6.54q.74 0 1.1.2.36.21.63.67l5.92 9.41q.3-.93.85-1.84l4.76-7.43q.6-1.01 1.56-1.01h6.25l-9.27 13.36Zm19.96-5.11v12.64q1.16 1.41 2.52 1.99 1.36.57 2.96.57 1.54 0 2.77-.57 1.24-.58 2.11-1.76.86-1.19 1.33-2.99.47-1.8.47-4.25 0-2.47-.4-4.19-.4-1.72-1.14-2.79-.74-1.08-1.8-1.57-1.06-.5-2.41-.5-2.12 0-3.6.9-1.49.89-2.81 2.52Zm-.9-7.02.55 2.62q1.73-1.96 3.93-3.17t5.17-1.21q2.31 0 4.22.97 1.91.96 3.3 2.79 1.39 1.82 2.14 4.51.76 2.68.76 6.14 0 3.16-.85 5.86-.85 2.69-2.44 4.68-1.58 1.98-3.82 3.09-2.24 1.11-5.02 1.11-2.36 0-4.04-.73-1.68-.72-3-2.02v11.55h-6.79v-37.42h4.15q1.32 0 1.74 1.23Zm25.43-13.89h6.8v40.87h-6.8v-40.87Zm26.07 12.21q3.14 0 5.71 1.02t4.4 2.89q1.83 1.87 2.82 4.57.99 2.69.99 6.02 0 3.35-.99 6.05-.99 2.69-2.82 4.59-1.83 1.9-4.4 2.92-2.57 1.01-5.71 1.01-3.16 0-5.74-1.01-2.59-1.02-4.42-2.92t-2.83-4.59q-1-2.7-1-6.05 0-3.33 1-6.02 1-2.7 2.83-4.57t4.42-2.89q2.58-1.02 5.74-1.02Zm0 23.85q3.52 0 5.21-2.37 1.7-2.36 1.7-6.93 0-4.56-1.7-6.96-1.69-2.39-5.21-2.39-3.57 0-5.29 2.41-1.72 2.41-1.72 6.94 0 4.54 1.72 6.92t5.29 2.38Zm25.11-21.7.41 3.19q1.32-2.53 3.14-3.97 1.81-1.45 4.29-1.45 1.95 0 3.13.85l-.44 5.09q-.13.5-.4.7-.26.21-.7.21-.41 0-1.22-.14-.81-.13-1.58-.13-1.13 0-2.01.32-.88.34-1.58.95-.7.62-1.24 1.5-.53.88-1 2.01v17.38h-6.79v-28.21h3.98q1.05 0 1.46.37.41.37.55 1.33Zm19.88 9.16h12.82q0-1.32-.37-2.49-.37-1.17-1.12-2.05-.74-.88-1.88-1.39-1.14-.51-2.65-.51-2.95 0-4.64 1.68-1.69 1.68-2.16 4.76Zm17.33 4.09h-17.46q.16 2.18.77 3.76.6 1.58 1.59 2.61.99 1.03 2.35 1.54t3.01.51q1.65 0 2.85-.38 1.2-.39 2.09-.86.89-.46 1.57-.85.67-.39 1.3-.39.86 0 1.27.64l1.95 2.47q-1.13 1.32-2.53 2.22-1.4.89-2.93 1.43-1.52.53-3.1.75-1.59.22-3.07.22-2.94 0-5.47-.97-2.53-.98-4.4-2.89-1.87-1.91-2.95-4.73-1.07-2.82-1.07-6.53 0-2.89.94-5.43.93-2.55 2.68-4.43 1.74-1.89 4.26-2.98 2.52-1.11 5.68-1.11 2.67 0 4.92.86 2.26.85 3.88 2.49 1.62 1.63 2.54 4.01.92 2.38.92 5.43 0 1.54-.33 2.08-.33.53-1.26.53Zm12.68-13.25.41 3.19q1.32-2.53 3.13-3.97 1.82-1.45 4.29-1.45 1.96 0 3.14.85l-.44 5.09q-.14.5-.4.7-.26.21-.7.21-.41 0-1.22-.14-.82-.13-1.59-.13-1.12 0-2 .32-.88.34-1.59.95-.7.62-1.23 1.5-.54.88-1.01 2.01v17.38h-6.79v-28.21h3.99q1.04 0 1.46.37.41.37.55 1.33Z"/></svg>